<?xml version="1.0" encoding="UTF-8" standalone="no"?>
<!-- Created with Inkscape (http://www.inkscape.org/) -->

<svg
   xmlns:dc="http://purl.org/dc/elements/1.1/"
   xmlns:cc="http://creativecommons.org/ns#"
   xmlns:rdf="http://www.w3.org/1999/02/22-rdf-syntax-ns#"
   xmlns:svg="http://www.w3.org/2000/svg"
   xmlns="http://www.w3.org/2000/svg"
   xmlns:sodipodi="http://sodipodi.sourceforge.net/DTD/sodipodi-0.dtd"
   xmlns:inkscape="http://www.inkscape.org/namespaces/inkscape"
   width="225.62054"
   height="180.59396"
   id="svg2"
   version="1.1"
   inkscape:version="0.48.4 r9939"
   sodipodi:docname="voiture.svg">
  <defs
     id="defs4" />
  <sodipodi:namedview
     id="base"
     pagecolor="#ffffff"
     bordercolor="#666666"
     borderopacity="1.0"
     inkscape:pageopacity="0.0"
     inkscape:pageshadow="2"
     inkscape:zoom="1.4"
     inkscape:cx="136.7031"
     inkscape:cy="94.839366"
     inkscape:document-units="px"
     inkscape:current-layer="layer1"
     showgrid="false"
     inkscape:window-width="1453"
     inkscape:window-height="899"
     inkscape:window-x="300"
     inkscape:window-y="99"
     inkscape:window-maximized="0"
     showguides="true"
     inkscape:guide-bbox="true"
     borderlayer="false"
     inkscape:showpageshadow="false"
     showborder="false"
     fit-margin-top="0"
     fit-margin-left="0"
     fit-margin-right="0"
     fit-margin-bottom="0" />
  <metadata
     id="metadata7">
    <rdf:RDF>
      <cc:Work
         rdf:about="">
        <dc:format>image/svg+xml</dc:format>
        <dc:type
           rdf:resource="http://purl.org/dc/dcmitype/StillImage" />
        <dc:title />
      </cc:Work>
    </rdf:RDF>
  </metadata>
  <g
     inkscape:label="Calque 1"
     inkscape:groupmode="layer"
     id="layer1"
     transform="translate(-190,-331.125)">
    <path
       style="fill:#e2e2e2;fill-opacity:1;stroke:none"
       d="m 299.52324,331.125 c -45.22764,0 -82.86527,41.59268 -90.83908,96.5185 l -2.34217,0 C 197.28701,427.6435 190,436.65847 190,447.81987 l 0,19.68427 c 0,11.1614 7.28701,20.14356 16.34199,20.14356 l 8.62345,0 c 2.37926,-13.32953 11.26831,-23.26024 21.87804,-23.26024 10.60972,0 19.49877,9.93071 21.87803,23.26024 l 42.39867,0 0,0.19684 45.93854,0 c 2.37407,-13.32953 11.23825,-23.26024 21.8248,-23.26024 10.58656,0 19.45074,9.93071 21.8248,23.26024 l 8.62346,0 c 9.0352,0 16.28876,-8.98215 16.28876,-20.14356 l 0,-19.68426 c 0,-11.16141 -7.25356,-20.17637 -16.28876,-20.17637 l -2.34217,0 c -7.95639,-54.92583 -45.52392,-96.51851 -90.65277,-96.51851 -0.52928,0 -1.04412,0.0203 -1.57032,0.0328 l 0,-0.0328 c -1.73783,-0.12461 -3.48104,-0.19684 -5.24328,-0.19684 z m -5.64251,19.02812 c 0.60885,0 1.23192,0.0145 1.83648,0.0328 l 0,73.8816 -62.2273,0 c -0.50135,-3.29071 -0.77185,-6.6666 -0.77185,-10.10459 0,-35.25272 27.38859,-63.80982 61.16267,-63.80982 z m 18.09862,0.19684 c 33.70031,0 61.02959,28.5571 61.02959,63.80982 0,3.438 -0.2716,6.81389 -0.77185,10.10459 l -62.09422,0 0,-73.8816 c 0.60322,-0.0183 1.22896,-0.0328 1.83648,-0.0328 z"
       id="path3872"
       inkscape:connector-curvature="0" />
    <path
       sodipodi:type="arc"
       style="fill:#000000;fill-opacity:1"
       id="path3767-3"
       sodipodi:cx="235"
       sodipodi:cy="487.00504"
       sodipodi:rx="26.428572"
       sodipodi:ry="28.928572"
       d="m 261.42857,487.00504 a 26.428572,28.928572 0 1 1 -52.85714,0 26.428572,28.928572 0 1 1 52.85714,0 z"
       transform="matrix(0.71500703,0,0,0.71284573,200.79589,142.20822)" />
    <path
       sodipodi:type="arc"
       style="fill:#000000;fill-opacity:1"
       id="path3767-3-7"
       sodipodi:cx="235"
       sodipodi:cy="487.00504"
       sodipodi:rx="26.428572"
       sodipodi:ry="28.928572"
       d="m 261.42857,487.00504 a 26.428572,28.928572 0 1 1 -52.85714,0 26.428572,28.928572 0 1 1 52.85714,0 z"
       transform="matrix(0.71500703,0,0,0.7387674,69.301624,130.56403)" />
  </g>
</svg>
